STARTFONT 2.1
COMMENT
COMMENT Converted from OpenType font "Q:\font stuff\winfont\Nanosecond Thin BRK.ttf" by "otf2bdf 3.0".
COMMENT
FONT -FreeType-Nanosecond Thin BRK-Medium-R-Normal--40-400-72-72-P-136-ISO10646-1
SIZE 40 72 72
FONTBOUNDINGBOX 28 40 0 -6
STARTPROPERTIES 19
FOUNDRY "FreeType"
FAMILY_NAME "Nanosecond Thin BRK"
WEIGHT_NAME "Medium"
SLANT "R"
SETWIDTH_NAME "Normal"
ADD_STYLE_NAME ""
PIXEL_SIZE 40
POINT_SIZE 400
RESOLUTION_X 72
RESOLUTION_Y 72
SPACING "P"
AVERAGE_WIDTH 136
CHARSET_REGISTRY "ISO10646"
CHARSET_ENCODING "1"
FONT_ASCENT 33
FONT_DESCENT 6
COPYRIGHT "ÆNIGMA FONTS   [e-mail]  kentpw@norwich.net"
_OTF_FONTFILE "Q:\font stuff\winfont\Nanosecond Thin BRK.ttf"
_OTF_PSNAME "NanosecondThinBRK"
ENDPROPERTIES
CHARS 99
STARTCHAR 0020
ENCODING 32
SWIDTH 425 0
DWIDTH 17 0
BBX 0 0 0 0
BITMAP
ENDCHAR
STARTCHAR 0021
ENCODING 33
SWIDTH 100 0
DWIDTH 4 0
BBX 2 27 1 0
BITMAP
C0
C0
C0
C0
C0
C0
C0
C0
C0
C0
C0
C0
C0
C0
C0
C0
C0
C0
C0
C0
C0
00
00
00
00
C0
C0
ENDCHAR
STARTCHAR 0022
ENCODING 34
SWIDTH 250 0
DWIDTH 10 0
BBX 8 8 1 18
BITMAP
C3
C3
C3
C3
C3
C3
C3
C3
ENDCHAR
STARTCHAR 0023
ENCODING 35
SWIDTH 475 0
DWIDTH 19 0
BBX 17 27 1 0
BITMAP
0C1800
0C1800
0C1800
0C1800
0C1800
0C1800
FFFF80
FFFF80
0C1800
0C1800
0C1800
0C1800
0C1800
0C1800
0C1800
0C1800
0C1800
0C1800
0C1800
FFFF80
FFFF80
0C1800
0C1800
0C1800
0C1800
0C1800
0C1800
ENDCHAR
STARTCHAR 0024
ENCODING 36
SWIDTH 425 0
DWIDTH 17 0
BBX 15 40 1 -6
BITMAP
0300
0300
0300
0300
0300
0300
0780
1FF0
3C78
701C
600C
C006
C006
C006
C006
C000
6000
6000
3800
1FC0
07F0
0038
000C
000C
0006
C006
C006
C006
C006
600C
701C
3C78
1FF0
0780
0300
0300
0300
0300
0300
0300
ENDCHAR
STARTCHAR 0025
ENCODING 37
SWIDTH 425 0
DWIDTH 17 0
BBX 15 27 1 0
BITMAP
3C06
7E06
E706
C30E
C30C
E71C
7E18
3C38
0030
0060
00E0
00C0
0180
0380
0300
0600
0E00
0C00
1800
38F8
31FC
738E
6306
E306
C38E
C1FC
C0F8
ENDCHAR
STARTCHAR 0026
ENCODING 38
SWIDTH 425 0
DWIDTH 17 0
BBX 15 40 1 -6
BITMAP
0300
0300
0300
0300
0300
0300
0780
1FF0
3C78
701C
600C
C006
C006
C006
C006
C000
6000
6000
3800
1F00
1F00
3800
6000
E000
C000
C006
C006
C006
C006
600C
701C
3C78
1FE0
0780
0300
0300
0300
0300
0300
0300
ENDCHAR
STARTCHAR 0027
ENCODING 39
SWIDTH 100 0
DWIDTH 4 0
BBX 2 8 1 19
BITMAP
C0
C0
C0
C0
C0
C0
C0
C0
ENDCHAR
STARTCHAR 0028
ENCODING 40
SWIDTH 250 0
DWIDTH 10 0
BBX 8 27 1 0
BITMAP
0F
1F
38
60
E0
C0
C0
C0
C0
C0
C0
C0
C0
C0
C0
C0
C0
C0
C0
C0
C0
C0
E0
60
38
1F
0F
ENDCHAR
STARTCHAR 0029
ENCODING 41
SWIDTH 250 0
DWIDTH 10 0
BBX 8 27 1 0
BITMAP
F0
F8
1C
06
07
03
03
03
03
03
03
03
03
03
03
03
03
03
03
03
03
03
07
06
1C
FC
F0
ENDCHAR
STARTCHAR 002A
ENCODING 42
SWIDTH 400 0
DWIDTH 16 0
BBX 14 14 1 13
BITMAP
0300
0300
0300
0300
430C
FFFC
7FF8
0FC0
0FC0
0FC0
1CE0
1860
3870
1000
ENDCHAR
STARTCHAR 002B
ENCODING 43
SWIDTH 425 0
DWIDTH 17 0
BBX 14 15 1 6
BITMAP
0300
0300
0300
0300
0300
0300
FFFC
FFFC
0300
0300
0300
0300
0300
0300
0300
ENDCHAR
STARTCHAR 002C
ENCODING 44
SWIDTH 100 0
DWIDTH 4 0
BBX 2 8 1 -6
BITMAP
C0
C0
C0
C0
C0
C0
C0
C0
ENDCHAR
STARTCHAR 002D
ENCODING 45
SWIDTH 425 0
DWIDTH 17 0
BBX 15 2 1 13
BITMAP
FFFE
FFFE
ENDCHAR
STARTCHAR 002E
ENCODING 46
SWIDTH 100 0
DWIDTH 4 0
BBX 2 2 1 0
BITMAP
C0
C0
ENDCHAR
STARTCHAR 002F
ENCODING 47
SWIDTH 425 0
DWIDTH 17 0
BBX 15 27 1 0
BITMAP
0006
0006
000E
000C
000C
001C
0018
0030
0070
0060
00E0
01C0
0180
0380
0700
0600
0E00
1C00
1800
3800
3000
7000
6000
E000
C000
C000
C000
ENDCHAR
STARTCHAR 0030
ENCODING 48
SWIDTH 425 0
DWIDTH 17 0
BBX 15 27 1 0
BITMAP
07C0
1FF0
3838
600C
E00C
C006
C006
C006
C006
C006
C006
C006
C006
C006
C006
C006
C006
C006
C006
C006
C006
C006
E00C
600C
3838
1FF0
0FC0
ENDCHAR
STARTCHAR 0031
ENCODING 49
SWIDTH 100 0
DWIDTH 4 0
BBX 2 27 1 0
BITMAP
C0
C0
C0
C0
C0
C0
C0
C0
C0
C0
C0
C0
C0
C0
C0
C0
C0
C0
C0
C0
C0
C0
C0
C0
C0
C0
C0
ENDCHAR
STARTCHAR 0032
ENCODING 50
SWIDTH 425 0
DWIDTH 17 0
BBX 15 27 1 0
BITMAP
07C0
1FF0
3838
600C
E00E
C006
C006
C006
0006
000E
000C
0038
07F0
1FC0
3800
7000
6000
C000
C000
C000
C000
C000
C000
C000
C000
FFFE
7FFE
ENDCHAR
STARTCHAR 0033
ENCODING 51
SWIDTH 425 0
DWIDTH 17 0
BBX 15 27 1 0
BITMAP
07C0
1FF0
3838
600C
E00C
C006
C006
C006
0006
000E
000C
003C
01F8
01F0
0038
000C
000C
0006
0006
C006
C006
C006
E00E
600C
3838
1FF0
07C0
ENDCHAR
STARTCHAR 0034
ENCODING 52
SWIDTH 425 0
DWIDTH 17 0
BBX 15 27 1 0
BITMAP
C006
C006
C006
C006
C006
C006
C006
C006
C006
C006
C006
C006
FFFE
7FFC
0006
0006
0006
0006
0006
0006
0006
0006
0006
0006
0006
0006
0006
ENDCHAR
STARTCHAR 0035
ENCODING 53
SWIDTH 425 0
DWIDTH 17 0
BBX 15 27 1 0
BITMAP
7FFE
FFFE
C000
C000
C000
C000
C000
C000
C000
C000
C000
C000
FFC0
7FF0
0038
000C
000C
0006
0006
0006
0006
0006
000C
000C
0038
FFF0
FFC0
ENDCHAR
STARTCHAR 0036
ENCODING 54
SWIDTH 425 0
DWIDTH 17 0
BBX 15 27 1 0
BITMAP
07C0
1FF0
3838
600C
E00C
C006
C006
C006
C000
C000
C000
C000
FFC0
7FF0
C038
C01C
C00C
C006
C006
C006
C006
C006
E00C
600C
3838
1FF0
07C0
ENDCHAR
STARTCHAR 0037
ENCODING 55
SWIDTH 425 0
DWIDTH 17 0
BBX 15 27 1 0
BITMAP
FFF8
FFFC
0006
0006
000C
000C
000C
001C
0018
0018
0018
0038
0030
0030
0070
0060
0060
0060
00C0
00C0
00C0
01C0
0180
0180
0180
0380
0300
ENDCHAR
STARTCHAR 0038
ENCODING 56
SWIDTH 425 0
DWIDTH 17 0
BBX 15 27 1 0
BITMAP
07C0
1FF0
3838
600C
E00C
C006
C006
C006
C006
E00E
600C
783C
3FF8
1FF0
3838
701C
600C
C006
C006
C006
C006
C006
E00E
600C
3838
1FF0
07C0
ENDCHAR
STARTCHAR 0039
ENCODING 57
SWIDTH 425 0
DWIDTH 17 0
BBX 15 27 1 0
BITMAP
07C0
1FF0
3838
600C
E00C
C006
C006
C006
C006
E006
6006
3806
1FFE
07FC
0006
0006
0006
0006
0006
0006
0006
0006
0006
0006
0006
0006
0006
ENDCHAR
STARTCHAR 003A
ENCODING 58
SWIDTH 100 0
DWIDTH 4 0
BBX 2 21 1 0
BITMAP
C0
C0
00
00
00
00
00
00
00
00
00
00
00
00
00
00
00
00
00
C0
C0
ENDCHAR
STARTCHAR 003B
ENCODING 59
SWIDTH 100 0
DWIDTH 4 0
BBX 2 27 1 -6
BITMAP
C0
C0
00
00
00
00
00
00
00
00
00
00
00
00
00
00
00
00
00
C0
C0
C0
C0
C0
C0
C0
C0
ENDCHAR
STARTCHAR 003C
ENCODING 60
SWIDTH 425 0
DWIDTH 17 0
BBX 15 15 1 6
BITMAP
003E
00FE
03E0
0780
1E00
3C00
F800
F000
3800
1C00
0E00
0780
01E0
00FE
001E
ENDCHAR
STARTCHAR 003D
ENCODING 61
SWIDTH 425 0
DWIDTH 17 0
BBX 15 11 1 8
BITMAP
FFFE
FFFE
0000
0000
0000
0000
0000
0000
0000
FFFE
FFFE
ENDCHAR
STARTCHAR 003E
ENCODING 62
SWIDTH 425 0
DWIDTH 17 0
BBX 15 15 1 6
BITMAP
F000
FE00
0F80
03C0
01E0
0078
003E
001E
0038
0070
01E0
0380
0F00
FC00
F000
ENDCHAR
STARTCHAR 003F
ENCODING 63
SWIDTH 425 0
DWIDTH 17 0
BBX 15 27 1 0
BITMAP
07C0
1FF0
3838
600C
E00C
C006
C006
C006
0006
000E
000C
001C
00F8
01E0
0380
0300
0300
0300
0300
0300
0300
0000
0000
0000
0000
0300
0300
ENDCHAR
STARTCHAR 0040
ENCODING 64
SWIDTH 725 0
DWIDTH 29 0
BBX 27 27 1 0
BITMAP
07FFFE00
1FFFFF00
38000380
600000C0
E00000C0
C0000060
C007C060
C007F060
C0003060
C0001860
C0001860
C0001860
C0FFF860
C3FFF060
C3001860
C3001860
C3001860
C3801860
C1801860
C1FFFFE0
C07FEFC0
C0000000
E0000000
60000000
38000000
1FFFF800
0FFFF800
ENDCHAR
STARTCHAR 0041
ENCODING 65
SWIDTH 425 0
DWIDTH 17 0
BBX 15 27 1 0
BITMAP
07C0
1FF0
3838
600C
E00C
C006
C006
C006
C006
C006
C006
C006
FFFE
7FFC
C006
C006
C006
C006
C006
C006
C006
C006
C006
C006
C006
C006
C006
ENDCHAR
STARTCHAR 0042
ENCODING 66
SWIDTH 425 0
DWIDTH 17 0
BBX 15 27 1 0
BITMAP
7FC0
FFF0
C038
C00C
C00E
C006
C006
C006
C006
C00E
C00C
C03C
FFF8
7FF0
C038
C01C
C00C
C006
C006
C006
C006
C006
C00E
C00C
C038
FFF0
7FC0
ENDCHAR
STARTCHAR 0043
ENCODING 67
SWIDTH 425 0
DWIDTH 17 0
BBX 15 27 1 0
BITMAP
07C0
1FF0
3838
600C
E00C
C006
C006
C006
C000
C000
C000
C000
C000
C000
C000
C000
C000
C000
C000
C006
C006
C006
E00E
600C
3838
1FF0
0FC0
ENDCHAR
STARTCHAR 0044
ENCODING 68
SWIDTH 425 0
DWIDTH 17 0
BBX 15 27 1 0
BITMAP
7FC0
FFF0
C038
C00C
C00E
C006
C006
C006
C006
C006
C006
C006
C006
C006
C006
C006
C006
C006
C006
C006
C006
C006
C00C
C00C
C038
FFF0
7FC0
ENDCHAR
STARTCHAR 0045
ENCODING 69
SWIDTH 425 0
DWIDTH 17 0
BBX 14 27 1 0
BITMAP
7FFC
FFFC
C000
C000
C000
C000
C000
C000
C000
C000
C000
C000
FF00
7F00
C000
C000
C000
C000
C000
C000
C000
C000
C000
C000
C000
FFFC
7FFC
ENDCHAR
STARTCHAR 0046
ENCODING 70
SWIDTH 425 0
DWIDTH 17 0
BBX 14 27 1 0
BITMAP
7FFC
FFFC
C000
C000
C000
C000
C000
C000
C000
C000
C000
C000
FF00
7F00
C000
C000
C000
C000
C000
C000
C000
C000
C000
C000
C000
C000
C000
ENDCHAR
STARTCHAR 0047
ENCODING 71
SWIDTH 425 0
DWIDTH 17 0
BBX 15 27 1 0
BITMAP
07C0
1FF0
3838
600C
E00C
C006
C006
C006
C000
C000
C000
C000
C1FC
C1FE
C006
C006
C006
C006
C006
C006
C006
C006
E006
6006
3806
1FFE
0FFC
ENDCHAR
STARTCHAR 0048
ENCODING 72
SWIDTH 425 0
DWIDTH 17 0
BBX 15 27 1 0
BITMAP
C006
C006
C006
C006
C006
C006
C006
C006
C006
C006
C006
C006
FFFE
7FFC
C006
C006
C006
C006
C006
C006
C006
C006
C006
C006
C006
C006
C006
ENDCHAR
STARTCHAR 0049
ENCODING 73
SWIDTH 425 0
DWIDTH 17 0
BBX 14 27 1 0
BITMAP
FFFC
FFFC
0300
0300
0300
0300
0300
0300
0300
0300
0300
0300
0300
0300
0300
0300
0300
0300
0300
0300
0300
0300
0300
0300
0300
FFFC
FFFC
ENDCHAR
STARTCHAR 004A
ENCODING 74
SWIDTH 425 0
DWIDTH 17 0
BBX 15 27 1 0
BITMAP
0006
0006
0006
0006
0006
0006
0006
0006
0006
0006
0006
0006
0006
0006
0006
0006
0006
0006
0006
C006
E006
6006
600E
700C
3838
1FF8
07E0
ENDCHAR
STARTCHAR 004B
ENCODING 75
SWIDTH 425 0
DWIDTH 17 0
BBX 15 27 1 0
BITMAP
C006
C006
C006
C006
C006
C006
C006
C006
C006
C00E
C00C
C03C
FFF8
7FF0
C038
C00C
C00C
C006
C006
C006
C006
C006
C006
C006
C006
C006
C006
ENDCHAR
STARTCHAR 004C
ENCODING 76
SWIDTH 425 0
DWIDTH 17 0
BBX 14 27 1 0
BITMAP
C000
C000
C000
C000
C000
C000
C000
C000
C000
C000
C000
C000
C000
C000
C000
C000
C000
C000
C000
C000
C000
C000
C000
C000
C000
FFFC
7FFC
ENDCHAR
STARTCHAR 004D
ENCODING 77
SWIDTH 625 0
DWIDTH 25 0
BBX 23 27 1 0
BITMAP
0FEFC0
1FFFF0
381838
60180C
E0180E
C01806
C01806
C01806
C01806
C01806
C01806
C01806
C01806
C01806
C01806
C01806
C01806
C01806
C01806
C01806
C01806
C01806
C01806
C01806
C01806
C01806
C01806
ENDCHAR
STARTCHAR 004E
ENCODING 78
SWIDTH 425 0
DWIDTH 17 0
BBX 15 27 1 0
BITMAP
07C0
1FF0
3838
600C
E00C
C006
C006
C006
C006
C006
C006
C006
C006
C006
C006
C006
C006
C006
C006
C006
C006
C006
C006
C006
C006
C006
C006
ENDCHAR
STARTCHAR 004F
ENCODING 79
SWIDTH 425 0
DWIDTH 17 0
BBX 15 27 1 0
BITMAP
07C0
1FF0
3838
600C
E00C
C006
C006
C006
C006
C006
C006
C006
C006
C006
C006
C006
C006
C006
C006
C006
C006
C006
E00C
600C
3838
1FF0
0FC0
ENDCHAR
STARTCHAR 0050
ENCODING 80
SWIDTH 425 0
DWIDTH 17 0
BBX 15 27 1 0
BITMAP
7FC0
FFF0
C038
C00C
C00E
C006
C006
C006
C006
C00E
C00C
C038
FFF0
7FC0
C000
C000
C000
C000
C000
C000
C000
C000
C000
C000
C000
C000
C000
ENDCHAR
STARTCHAR 0051
ENCODING 81
SWIDTH 425 0
DWIDTH 17 0
BBX 15 27 1 -1
BITMAP
07C0
1FF0
3838
600C
E00C
C006
C006
C006
C006
C006
C006
C006
C006
C006
C006
C006
C006
C006
C006
C306
C306
C306
E30E
631C
733C
3FF8
0FE0
ENDCHAR
STARTCHAR 0052
ENCODING 82
SWIDTH 425 0
DWIDTH 17 0
BBX 15 27 1 0
BITMAP
7FC0
FFF0
C038
C00C
C00E
C006
C006
C006
C006
C00E
C00C
C03C
FFF8
7FF0
C038
C00C
C00C
C006
C006
C006
C006
C006
C006
C006
C006
C006
C006
ENDCHAR
STARTCHAR 0053
ENCODING 83
SWIDTH 425 0
DWIDTH 17 0
BBX 15 27 1 0
BITMAP
07C0
1FF0
3838
600C
E00C
C006
C006
C006
C000
E000
6000
3800
1FC0
07F0
0038
001C
000C
0006
0006
C006
C006
C006
E00C
600C
3838
1FF0
07C0
ENDCHAR
STARTCHAR 0054
ENCODING 84
SWIDTH 425 0
DWIDTH 17 0
BBX 14 27 1 0
BITMAP
FFFC
FFFC
0300
0300
0300
0300
0300
0300
0300
0300
0300
0300
0300
0300
0300
0300
0300
0300
0300
0300
0300
0300
0300
0300
0300
0300
0300
ENDCHAR
STARTCHAR 0055
ENCODING 85
SWIDTH 425 0
DWIDTH 17 0
BBX 15 27 1 0
BITMAP
C006
C006
C006
C006
C006
C006
C006
C006
C006
C006
C006
C006
C006
C006
C006
C006
C006
C006
C006
C006
C006
C006
E00C
600C
3838
1FF0
0FC0
ENDCHAR
STARTCHAR 0056
ENCODING 86
SWIDTH 425 0
DWIDTH 17 0
BBX 15 27 1 0
BITMAP
C006
C006
C006
C006
C006
C006
C006
C006
C006
C006
C006
C006
C006
C006
C006
C006
C006
C006
600C
600C
600C
3018
1830
1C70
07C0
0380
0100
ENDCHAR
STARTCHAR 0057
ENCODING 87
SWIDTH 625 0
DWIDTH 25 0
BBX 23 27 1 0
BITMAP
C01806
C01806
C01806
C01806
C01806
C01806
C01806
C01806
C01806
C01806
C01806
C01806
C01806
C01806
C01806
C01806
C01806
C01806
C01806
C01806
C01806
C01806
E0180E
60180C
381838
1FFFF0
0FEFC0
ENDCHAR
STARTCHAR 0058
ENCODING 88
SWIDTH 425 0
DWIDTH 17 0
BBX 15 27 1 0
BITMAP
C006
C006
C006
C006
C006
C006
C006
C006
C006
E00E
600C
783C
3FF8
1FF0
3838
701C
600C
C006
C006
C006
C006
C006
C006
C006
C006
C006
C006
ENDCHAR
STARTCHAR 0059
ENCODING 89
SWIDTH 425 0
DWIDTH 17 0
BBX 15 27 1 0
BITMAP
C006
C006
C006
C006
C006
C006
C006
C006
C006
C006
600C
701C
3C78
1FE0
0780
0300
0300
0300
0300
0300
0300
0300
0300
0300
0300
0300
0300
ENDCHAR
STARTCHAR 005A
ENCODING 90
SWIDTH 425 0
DWIDTH 17 0
BBX 15 27 1 0
BITMAP
FFF8
FFFC
0006
000E
000C
001C
0018
0038
0070
0060
00E0
01C0
0180
0380
0700
0600
0E00
1C00
1800
3800
3000
6000
E000
C000
C000
FFFE
7FFE
ENDCHAR
STARTCHAR 005B
ENCODING 91
SWIDTH 250 0
DWIDTH 10 0
BBX 8 27 1 0
BITMAP
7F
FF
C0
C0
C0
C0
C0
C0
C0
C0
C0
C0
C0
C0
C0
C0
C0
C0
C0
C0
C0
C0
C0
C0
C0
FF
7F
ENDCHAR
STARTCHAR 005C
ENCODING 92
SWIDTH 425 0
DWIDTH 17 0
BBX 15 27 1 0
BITMAP
C000
C000
C000
E000
6000
7000
3000
3800
1800
1C00
0E00
0600
0700
0380
0180
01C0
00E0
0060
0070
0030
0018
0018
000C
000C
000E
0006
0006
ENDCHAR
STARTCHAR 005D
ENCODING 93
SWIDTH 250 0
DWIDTH 10 0
BBX 8 27 1 0
BITMAP
FE
FF
03
03
03
03
03
03
03
03
03
03
03
03
03
03
03
03
03
03
03
03
03
03
03
FF
FE
ENDCHAR
STARTCHAR 005E
ENCODING 94
SWIDTH 425 0
DWIDTH 17 0
BBX 15 8 1 19
BITMAP
0300
0380
1FE0
3C78
701C
E00C
C006
C006
ENDCHAR
STARTCHAR 005F
ENCODING 95
SWIDTH 425 0
DWIDTH 17 0
BBX 15 2 1 -6
BITMAP
FFFE
FFFE
ENDCHAR
STARTCHAR 0060
ENCODING 96
SWIDTH 100 0
DWIDTH 4 0
BBX 2 8 1 19
BITMAP
C0
C0
C0
C0
C0
C0
C0
C0
ENDCHAR
STARTCHAR 0061
ENCODING 97
SWIDTH 425 0
DWIDTH 17 0
BBX 15 15 1 0
BITMAP
01F0
01FC
000C
000E
0006
0006
0006
3FFC
7FFE
E006
E006
6006
7006
3FFE
1FFC
ENDCHAR
STARTCHAR 0062
ENCODING 98
SWIDTH 425 0
DWIDTH 17 0
BBX 15 27 1 0
BITMAP
C000
C000
C000
C000
C000
C000
C000
C000
C000
C000
C000
C000
FFC0
7FF0
C038
C01C
C00C
C006
C006
C006
C006
C006
C00C
C00C
C038
FFF0
7FC0
ENDCHAR
STARTCHAR 0063
ENCODING 99
SWIDTH 425 0
DWIDTH 17 0
BBX 15 15 1 0
BITMAP
0FFC
1FFE
3800
7000
E000
C000
C000
C000
C000
C000
E000
6000
3800
1FFC
0FFC
ENDCHAR
STARTCHAR 0064
ENCODING 100
SWIDTH 425 0
DWIDTH 17 0
BBX 15 27 1 0
BITMAP
0006
0006
0006
0006
0006
0006
0006
0006
0006
0006
0006
0006
07FE
1FFC
3806
7006
E006
C006
C006
C006
C006
C006
E006
6006
3806
1FFE
07FC
ENDCHAR
STARTCHAR 0065
ENCODING 101
SWIDTH 425 0
DWIDTH 17 0
BBX 15 15 1 0
BITMAP
1FF0
3FF8
701C
E00E
C006
C006
C006
7FFC
FFFC
C000
C000
C000
6000
7F00
1F00
ENDCHAR
STARTCHAR 0066
ENCODING 102
SWIDTH 425 0
DWIDTH 17 0
BBX 14 27 1 0
BITMAP
0FFC
1FFC
3800
6000
E000
C000
C000
C000
C000
C000
C000
C000
FF00
7F00
C000
C000
C000
C000
C000
C000
C000
C000
C000
C000
C000
C000
C000
ENDCHAR
STARTCHAR 0067
ENCODING 103
SWIDTH 425 0
DWIDTH 17 0
BBX 15 21 1 -6
BITMAP
07FC
1FFE
3806
7006
E006
C006
C006
C006
C006
C006
E006
6006
3806
1FFC
07FE
0006
0006
0006
000C
01FC
01F0
ENDCHAR
STARTCHAR 0068
ENCODING 104
SWIDTH 425 0
DWIDTH 17 0
BBX 15 27 1 0
BITMAP
C000
C000
C000
C000
C000
C000
C000
C000
C000
C000
C000
C000
FFC0
7FF0
C038
C00C
C00C
C006
C006
C006
C006
C006
C006
C006
C006
C006
C006
ENDCHAR
STARTCHAR 0069
ENCODING 105
SWIDTH 100 0
DWIDTH 4 0
BBX 2 21 1 0
BITMAP
C0
C0
00
00
00
00
C0
C0
C0
C0
C0
C0
C0
C0
C0
C0
C0
C0
C0
C0
C0
ENDCHAR
STARTCHAR 006A
ENCODING 106
SWIDTH 250 0
DWIDTH 10 0
BBX 8 27 1 -6
BITMAP
03
03
00
00
00
00
03
03
03
03
03
03
03
03
03
03
03
03
03
03
03
03
07
06
1C
F8
F0
ENDCHAR
STARTCHAR 006B
ENCODING 107
SWIDTH 425 0
DWIDTH 17 0
BBX 15 27 1 0
BITMAP
C000
C000
C000
C000
C000
C000
C006
C006
C006
C00C
C00C
C038
FFF0
7FF0
C038
C00C
C00E
C006
C006
C006
C006
C006
C006
C006
C006
C006
C006
ENDCHAR
STARTCHAR 006C
ENCODING 108
SWIDTH 100 0
DWIDTH 4 0
BBX 2 27 1 0
BITMAP
C0
C0
C0
C0
C0
C0
C0
C0
C0
C0
C0
C0
C0
C0
C0
C0
C0
C0
C0
C0
C0
C0
C0
C0
C0
C0
C0
ENDCHAR
STARTCHAR 006D
ENCODING 109
SWIDTH 625 0
DWIDTH 25 0
BBX 23 15 1 0
BITMAP
0FEFC0
1FFFF0
381838
70180C
60180E
C01806
C01806
C01806
C01806
C01806
C01806
C01806
C01806
C01806
C01806
ENDCHAR
STARTCHAR 006E
ENCODING 110
SWIDTH 425 0
DWIDTH 17 0
BBX 15 15 1 0
BITMAP
07C0
1FF0
3838
701C
600C
C006
C006
C006
C006
C006
C006
C006
C006
C006
C006
ENDCHAR
STARTCHAR 006F
ENCODING 111
SWIDTH 425 0
DWIDTH 17 0
BBX 15 15 1 0
BITMAP
07C0
1FF0
3838
701C
600C
C006
C006
C006
C006
C006
600C
600C
3838
1FF0
07C0
ENDCHAR
STARTCHAR 0070
ENCODING 112
SWIDTH 425 0
DWIDTH 17 0
BBX 15 21 1 -6
BITMAP
7FC0
FFF0
C038
C01C
C00C
C006
C006
C006
C006
C006
C00C
C00C
C038
7FF0
FFC0
C000
C000
C000
C000
C000
C000
ENDCHAR
STARTCHAR 0071
ENCODING 113
SWIDTH 425 0
DWIDTH 17 0
BBX 15 21 1 -6
BITMAP
07FC
1FFE
3806
7006
E006
C006
C006
C006
C006
C006
E006
6006
3806
1FFC
07FE
0006
0006
0006
0006
0006
0006
ENDCHAR
STARTCHAR 0072
ENCODING 114
SWIDTH 425 0
DWIDTH 17 0
BBX 15 15 1 0
BITMAP
0FFC
1FFE
3800
6000
E000
C000
C000
C000
C000
C000
C000
C000
C000
C000
C000
ENDCHAR
STARTCHAR 0073
ENCODING 115
SWIDTH 425 0
DWIDTH 17 0
BBX 15 15 1 0
BITMAP
1FFE
3FFE
7000
6000
C000
C000
E000
7FFC
3FFE
0006
0006
0006
000C
7FFC
FFF0
ENDCHAR
STARTCHAR 0074
ENCODING 116
SWIDTH 425 0
DWIDTH 17 0
BBX 14 21 1 0
BITMAP
0300
0300
0300
0300
0300
0300
FFFC
FFFC
0300
0300
0300
0300
0300
0300
0300
0300
0300
0300
0300
0300
0300
ENDCHAR
STARTCHAR 0075
ENCODING 117
SWIDTH 425 0
DWIDTH 17 0
BBX 15 15 1 0
BITMAP
C006
C006
C006
C006
C006
C006
C006
C006
C006
C006
600C
600C
3838
1FF0
07C0
ENDCHAR
STARTCHAR 0076
ENCODING 118
SWIDTH 425 0
DWIDTH 17 0
BBX 15 15 1 0
BITMAP
C006
C006
C006
C006
C006
E00E
600C
600C
701C
3838
1C70
0EE0
07C0
0380
0100
ENDCHAR
STARTCHAR 0077
ENCODING 119
SWIDTH 625 0
DWIDTH 25 0
BBX 23 15 1 0
BITMAP
C01806
C01806
C01806
C01806
C01806
C01806
C01806
C01806
C01806
C01806
60180E
60180C
381838
1FFFF0
0FEFC0
ENDCHAR
STARTCHAR 0078
ENCODING 120
SWIDTH 425 0
DWIDTH 17 0
BBX 15 15 1 0
BITMAP
C006
C006
C006
C006
600C
701C
3838
1FF0
3FF8
783C
600C
E00E
C006
C006
C006
ENDCHAR
STARTCHAR 0079
ENCODING 121
SWIDTH 425 0
DWIDTH 17 0
BBX 15 21 1 -6
BITMAP
C006
C006
C006
C006
C006
C006
C006
C006
C006
C006
6006
6006
3806
1FFC
07FE
0006
0006
0006
000C
01FC
01F0
ENDCHAR
STARTCHAR 007A
ENCODING 122
SWIDTH 425 0
DWIDTH 17 0
BBX 15 15 1 0
BITMAP
FFF8
FFFC
0006
000E
001C
0078
01F0
07C0
1F00
3C00
7000
E000
C000
FFFE
7FFE
ENDCHAR
STARTCHAR 007B
ENCODING 123
SWIDTH 325 0
DWIDTH 13 0
BBX 10 27 1 0
BITMAP
03C0
07C0
1E00
1800
3800
3000
3000
3000
3000
3000
3000
3000
F000
E000
3000
3000
3000
3000
3000
3000
3000
3000
3800
1800
0E00
07C0
03C0
ENDCHAR
STARTCHAR 007C
ENCODING 124
SWIDTH 100 0
DWIDTH 4 0
BBX 2 40 1 -6
BITMAP
C0
C0
C0
C0
C0
C0
C0
C0
C0
C0
C0
C0
C0
C0
C0
C0
C0
C0
C0
C0
C0
C0
C0
C0
C0
C0
C0
C0
C0
C0
C0
C0
C0
C0
C0
C0
C0
C0
C0
C0
ENDCHAR
STARTCHAR 007D
ENCODING 125
SWIDTH 325 0
DWIDTH 13 0
BBX 10 27 1 0
BITMAP
E000
F800
1E00
0600
0700
0300
0300
0300
0300
0300
0300
0300
03C0
01C0
0300
0300
0300
0300
0300
0300
0300
0300
0700
0600
1C00
F800
F000
ENDCHAR
STARTCHAR 007E
ENCODING 126
SWIDTH 425 0
DWIDTH 17 0
BBX 15 6 1 11
BITMAP
1E06
3F06
7186
618C
E1FC
C0F0
ENDCHAR
STARTCHAR 00C6
ENCODING 198
SWIDTH 625 0
DWIDTH 25 0
BBX 23 27 1 0
BITMAP
07FFFE
1FFFFE
381800
601800
601800
C01800
C01800
C01800
C01800
C01800
C01800
C01800
FFFFE0
7FFFE0
C01800
C01800
C01800
C01800
C01800
C01800
C01800
C01800
C01800
C01800
C01800
C01FFE
C00FFE
ENDCHAR
STARTCHAR 00E6
ENCODING 230
SWIDTH 625 0
DWIDTH 25 0
BBX 23 15 1 0
BITMAP
07C3F0
07FFFC
003C0C
00380E
001806
001806
001806
3FFFFE
7FFFFC
601800
E01800
601800
701C00
3FFFE0
1FF3E0
ENDCHAR
STARTCHAR E000
ENCODING 57344
SWIDTH 0 0
DWIDTH 0 0
BBX 0 0 0 0
BITMAP
ENDCHAR
STARTCHAR E001
ENCODING 57345
SWIDTH 500 0
DWIDTH 20 0
BBX 0 0 0 0
BITMAP
ENDCHAR
ENDFONT
